<svg width="62" height="62" viewBox="0 0 62 62" fill="none" xmlns="http://www.w3.org/2000/svg">
<g id="Facebook - Original" clip-path="url(#clip0_0_297)">
<path id="Vector" d="M62 31C62 13.8792 48.1208 0 31 0C13.8792 0 0 13.8792 0 31C0 46.4728 11.3362 59.2978 26.1562 61.6234V39.9609H18.2852V31H26.1562V24.1703C26.1562 16.4009 30.7845 12.1094 37.8654 12.1094C41.256 12.1094 44.8047 12.7148 44.8047 12.7148V20.3438H40.8958C37.045 20.3438 35.8438 22.7335 35.8438 25.1875V31H44.4414L43.067 39.9609H35.8438V61.6234C50.6638 59.2978 62 46.4728 62 31Z" fill="#1877F2"/>
<path id="Vector_2" d="M43.067 39.9609L44.4414 31H35.8438V25.1875C35.8438 22.736 37.045 20.3438 40.8958 20.3438H44.8047V12.7148C44.8047 12.7148 41.2572 12.1094 37.8654 12.1094C30.7845 12.1094 26.1562 16.4009 26.1562 24.1703V31H18.2852V39.9609H26.1562V61.6234C29.3659 62.1255 32.6341 62.1255 35.8438 61.6234V39.9609H43.067Z" fill="white"/>
</g>
<defs>
<clipPath id="clip0_0_297">
<rect width="62" height="62" fill="white"/>
</clipPath>
</defs>
</svg>
