<svg width="32" height="32" viewBox="0 0 32 32" fill="none" xmlns="http://www.w3.org/2000/svg">
<g id="Google - Original" clip-path="url(#clip0_0_292)">
<path id="Vector" d="M31.688 16.3686C31.688 15.2809 31.5998 14.1874 31.4117 13.1174H16.32V19.2787H24.9623C24.6037 21.2659 23.4514 23.0237 21.7641 24.1408V28.1386H26.9201C29.9478 25.3519 31.688 21.2365 31.688 16.3686Z" fill="#4285F4"/>
<path id="Vector_2" d="M16.32 32.0011C20.6352 32.0011 24.2744 30.5843 26.9259 28.1385L21.7699 24.1408C20.3354 25.1167 18.4835 25.6693 16.3259 25.6693C12.1517 25.6693 8.61246 22.8532 7.34257 19.0671H2.02197V23.1883C4.73812 28.5912 10.2704 32.0011 16.32 32.0011Z" fill="#34A853"/>
<path id="Vector_3" d="M7.33673 19.067C6.66651 17.0799 6.66651 14.9282 7.33673 12.941V8.81976H2.02201C-0.247327 13.3408 -0.247327 18.6673 2.02201 23.1883L7.33673 19.067Z" fill="#FBBC04"/>
<path id="Vector_4" d="M16.32 6.33288C18.6011 6.29761 20.8057 7.15596 22.4578 8.73156L27.0258 4.16349C24.1333 1.44734 20.2943 -0.0459547 16.32 0.00107822C10.2704 0.00107822 4.73812 3.41096 2.02197 8.81974L7.33669 12.941C8.6007 9.14897 12.1458 6.33288 16.32 6.33288Z" fill="#EA4335"/>
</g>
<defs>
<clipPath id="clip0_0_292">
<rect width="32" height="32" fill="white"/>
</clipPath>
</defs>
</svg>
